<svg width="800" height="500" viewBox="0 0 800 500" xmlns="http://www.w3.org/2000/svg" role="img" aria-label="Servicio de paqueteria y carga">
  <defs>
    <linearGradient id="parcelBg" x1="0" y1="0" x2="1" y2="1">
      <stop offset="0%" stop-color="#172554"/>
      <stop offset="50%" stop-color="#1e40af"/>
      <stop offset="100%" stop-color="#0f766e"/>
    </linearGradient>
  </defs>
  <rect width="800" height="500" fill="url(#parcelBg)"/>
  <circle cx="680" cy="100" r="95" fill="#f8fafc" fill-opacity="0.12"/>
  <circle cx="120" cy="420" r="120" fill="#f8fafc" fill-opacity="0.08"/>

  <rect x="70" y="350" width="660" height="70" rx="14" fill="#0f172a" fill-opacity="0.65"/>

  <rect x="180" y="250" width="260" height="104" rx="16" fill="#f8fafc" fill-opacity="0.94"/>
  <rect x="460" y="210" width="190" height="146" rx="18" fill="#f8fafc" fill-opacity="0.95"/>
  <rect x="480" y="240" width="60" height="48" rx="8" fill="#0f172a" fill-opacity="0.16"/>
  <rect x="550" y="240" width="80" height="58" rx="10" fill="#0f172a" fill-opacity="0.18"/>

  <rect x="220" y="284" width="80" height="18" rx="6" fill="#0f172a" fill-opacity="0.5"/>
  <rect x="312" y="284" width="80" height="18" rx="6" fill="#0f172a" fill-opacity="0.4"/>

  <circle cx="230" cy="378" r="28" fill="#f8fafc"/>
  <circle cx="540" cy="378" r="28" fill="#f8fafc"/>
  <circle cx="230" cy="378" r="13" fill="#0f172a"/>
  <circle cx="540" cy="378" r="13" fill="#0f172a"/>
</svg>
