<svg width="800" height="500" viewBox="0 0 800 500" xmlns="http://www.w3.org/2000/svg" role="img" aria-label="Fondo cinematico de paqueteria y carga">
  <defs>
    <linearGradient id="bg" x1="0" y1="0" x2="1" y2="1">
      <stop offset="0%" stop-color="#030712"/>
      <stop offset="58%" stop-color="#1e3a8a"/>
      <stop offset="100%" stop-color="#0f766e"/>
    </linearGradient>
  </defs>
  <rect width="800" height="500" fill="url(#bg)"/>
  <circle cx="680" cy="100" r="94" fill="#e2e8f0" fill-opacity="0.12"/>
  <circle cx="120" cy="420" r="120" fill="#e2e8f0" fill-opacity="0.08"/>
  <rect x="80" y="352" width="640" height="68" rx="13" fill="#0f172a" fill-opacity="0.72"/>
  <rect x="170" y="248" width="270" height="106" rx="14" fill="#e2e8f0" fill-opacity="0.96"/>
  <rect x="458" y="204" width="196" height="152" rx="16" fill="#e2e8f0" fill-opacity="0.96"/>
  <rect x="488" y="236" width="64" height="50" rx="8" fill="#0f172a" fill-opacity="0.16"/>
  <rect x="564" y="236" width="72" height="56" rx="9" fill="#0f172a" fill-opacity="0.2"/>
  <rect x="208" y="284" width="82" height="18" rx="6" fill="#0f172a" fill-opacity="0.5"/>
  <rect x="304" y="284" width="82" height="18" rx="6" fill="#0f172a" fill-opacity="0.42"/>
  <circle cx="230" cy="378" r="28" fill="#f8fafc"/>
  <circle cx="542" cy="378" r="28" fill="#f8fafc"/>
  <circle cx="230" cy="378" r="12" fill="#0f172a"/>
  <circle cx="542" cy="378" r="12" fill="#0f172a"/>
</svg>
